<mxfile host="65bd71144e">
    <diagram id="UeDBS4sY5wniMm-8oZoE" name="Page-1">
        <mxGraphModel dx="700" dy="448" grid="1" gridSize="10" guides="1" tooltips="1" connect="1" arrows="1" fold="1" page="1" pageScale="1" pageWidth="850" pageHeight="1100" math="0" shadow="0">
            <root>
                <mxCell id="0"/>
                <mxCell id="1" parent="0"/>
                <mxCell id="10" value="" style="rounded=0;whiteSpace=wrap;html=1;" parent="1" vertex="1">
                    <mxGeometry x="20" y="90" width="470" height="260" as="geometry"/>
                </mxCell>
                <mxCell id="18" value="" style="rounded=0;whiteSpace=wrap;html=1;fontSize=12;" parent="1" vertex="1">
                    <mxGeometry x="240" y="120" width="220" height="200" as="geometry"/>
                </mxCell>
                <mxCell id="14" style="edgeStyle=none;html=1;startArrow=none;startFill=0;entryX=-0.02;entryY=0.407;entryDx=0;entryDy=0;entryPerimeter=0;" parent="1" target="9" edge="1">
                    <mxGeometry relative="1" as="geometry">
                        <mxPoint x="460" y="213" as="sourcePoint"/>
                        <mxPoint x="438" y="210" as="targetPoint"/>
                    </mxGeometry>
                </mxCell>
                <mxCell id="15" style="edgeStyle=none;html=1;entryX=0;entryY=0.612;entryDx=0;entryDy=0;entryPerimeter=0;startArrow=classic;startFill=1;endArrow=none;endFill=0;" parent="1" target="9" edge="1">
                    <mxGeometry relative="1" as="geometry">
                        <mxPoint x="460" y="229" as="sourcePoint"/>
                        <mxPoint x="490" y="229" as="targetPoint"/>
                    </mxGeometry>
                </mxCell>
                <mxCell id="4" value="Persistence Context" style="text;html=1;align=center;verticalAlign=middle;resizable=0;points=[];autosize=1;strokeColor=none;fillColor=none;" parent="1" vertex="1">
                    <mxGeometry x="240" y="120" width="130" height="30" as="geometry"/>
                </mxCell>
                <mxCell id="22" value="" style="edgeStyle=none;html=1;" edge="1" parent="1" source="6" target="20">
                    <mxGeometry relative="1" as="geometry"/>
                </mxCell>
                <mxCell id="6" value="Entity1" style="ellipse;whiteSpace=wrap;html=1;" parent="1" vertex="1">
                    <mxGeometry x="260" y="205" width="60" height="30" as="geometry"/>
                </mxCell>
                <mxCell id="9" value="DB" style="shape=cylinder3;whiteSpace=wrap;html=1;boundedLbl=1;backgroundOutline=1;size=15;" parent="1" vertex="1">
                    <mxGeometry x="540" y="180" width="60" height="80" as="geometry"/>
                </mxCell>
                <mxCell id="11" style="edgeStyle=none;html=1;exitX=1;exitY=0.5;exitDx=0;exitDy=0;dashed=1;entryX=0;entryY=0.5;entryDx=0;entryDy=0;" parent="1" edge="1" target="6">
                    <mxGeometry relative="1" as="geometry">
                        <mxPoint x="160" y="220" as="sourcePoint"/>
                        <mxPoint x="240" y="220" as="targetPoint"/>
                    </mxGeometry>
                </mxCell>
                <mxCell id="13" value="저장 요청" style="text;html=1;align=center;verticalAlign=middle;resizable=0;points=[];autosize=1;strokeColor=none;fillColor=none;" parent="1" vertex="1">
                    <mxGeometry x="170" y="190" width="70" height="30" as="geometry"/>
                </mxCell>
                <mxCell id="16" value="Application" style="text;html=1;align=center;verticalAlign=middle;resizable=0;points=[];autosize=1;strokeColor=none;fillColor=none;" parent="1" vertex="1">
                    <mxGeometry x="20" y="90" width="80" height="30" as="geometry"/>
                </mxCell>
                <mxCell id="17" value="&lt;span style=&quot;border-color: var(--border-color); color: rgb(17, 17, 17); font-family: Roboto, sans-serif; text-align: left; background-color: rgb(255, 255, 255);&quot;&gt;&lt;font style=&quot;border-color: var(--border-color);&quot;&gt;≪&lt;/font&gt;&lt;/span&gt;interface≫&lt;br style=&quot;border-color: var(--border-color);&quot;&gt;EntityManager" style="rounded=0;whiteSpace=wrap;html=1;fontSize=12;" parent="1" vertex="1">
                    <mxGeometry x="50" y="200" width="120" height="40" as="geometry"/>
                </mxCell>
                <mxCell id="20" value="쓰기 지연&lt;br&gt;SQL&lt;br&gt;저장소" style="rounded=0;whiteSpace=wrap;html=1;fontSize=12;" vertex="1" parent="1">
                    <mxGeometry x="385" y="162" width="75" height="116" as="geometry"/>
                </mxCell>
                <mxCell id="23" value="SQL 변환" style="text;html=1;align=center;verticalAlign=middle;resizable=0;points=[];autosize=1;strokeColor=none;fillColor=none;" vertex="1" parent="1">
                    <mxGeometry x="315" y="190" width="70" height="30" as="geometry"/>
                </mxCell>
            </root>
        </mxGraphModel>
    </diagram>
</mxfile>